<?xml version="1.0"?>
<svg xmlns="http://www.w3.org/2000/svg" xmlns:xlink="http://www.w3.org/1999/xlink" xmlns:svgjs="http://svgjs.com/svgjs" version="1.1" width="512" height="512" x="0" y="0" viewBox="0 0 512 512" style="enable-background:new 0 0 512 512" xml:space="preserve" class=""><g><linearGradient xmlns="http://www.w3.org/2000/svg" id="a" gradientUnits="userSpaceOnUse" x1="239.642" x2="239.642" y1="0" y2="512"><stop stop-opacity="1" stop-color="#f22929" offset="0"/><stop stop-opacity="1" stop-color="#f25c5c" offset="1"/></linearGradient><path xmlns="http://www.w3.org/2000/svg" d="m303.230469 344.566406c18.414062-17.5 29.910156-42.214844 29.910156-69.566406 0-52.933594-43.0625-96-96-96-52.933594 0-96 43.066406-96 96 0 27.351562 11.5 52.066406 29.914063 69.566406-66.652344 26.402344-113.914063 91.5-113.914063 167.433594h40c0-77.195312 62.804687-140 140-140 77.199219 0 140 62.804688 140 140h40c0-75.933594-47.261719-141.03125-113.910156-167.433594zm-66.089844-125.566406c30.878906 0 56 25.121094 56 56s-25.121094 56-56 56c-30.875 0-56-25.121094-56-56s25.125-56 56-56zm-.5-71.714844-74.640625-74.644531 28.285156-28.285156 26.855469 26.859375v-71.214844h40v70.214844l25.859375-25.855469 28.285156 28.285156zm184.898437 7.605469h36.714844v40h-106v-106h40v38.714844l58.746094-58.746094 28.285156 28.28125zm-400.507812 1h35.714844l-56.746094-56.746094 28.285156-28.285156 58.746094 58.746094v-39.714844h40v106h-106zm0 0" fill="url(#a)" data-original="url(#a)" style=""/></g></svg>
