<?xml version="1.0"?>
<svg xmlns="http://www.w3.org/2000/svg" xmlns:xlink="http://www.w3.org/1999/xlink" xmlns:svgjs="http://svgjs.com/svgjs" version="1.1" width="512" height="512" x="0" y="0" viewBox="0 0 488.005 488.005" style="enable-background:new 0 0 512 512" xml:space="preserve" class=""><g>
<g xmlns="http://www.w3.org/2000/svg">
	<g>
		<path d="M446.058,87.765c0.648,0.16,1.296,0.24,1.944,0.24c2.096,0,4.136-0.832,5.656-2.344l32-32    c2.04-2.04,2.824-5.016,2.056-7.792c-0.768-2.784-2.976-4.928-5.768-5.624l-27.344-6.832l-6.84-27.344    c-0.696-2.8-2.848-5-5.624-5.776c-2.808-0.776-5.76,0.016-7.792,2.056l-32,32c-1.992,1.984-2.784,4.864-2.104,7.592l6.904,27.608    l-3.304,3.304C360.914,32.677,303.298,8.005,240.002,8.005c-132.336,0-240,107.664-240,240s107.664,240,240,240    s240-107.664,240-240c0-63.296-24.672-120.912-64.856-163.832l3.312-3.312L446.058,87.765z M464.002,248.005    c0,123.512-100.488,224-224,224s-224-100.488-224-224s100.488-224,224-224c58.888,0,112.504,22.872,152.528,60.16l-11.312,11.312    c-37.12-34.392-86.744-55.472-141.216-55.472c-114.688,0-208,93.304-208,208s93.312,208,208,208s208-93.304,208-208    c0-54.472-21.08-104.096-55.472-141.216l11.312-11.312C441.13,135.501,464.002,189.117,464.002,248.005z M245.658,253.661    l15.936-15.936c1.504,3.128,2.408,6.584,2.408,10.28c0,13.232-10.768,24-24,24s-24-10.768-24-24s10.768-24,24-24    c3.696,0,7.152,0.904,10.28,2.408l-15.936,15.936L245.658,253.661z M262.026,214.669c-6.328-4.192-13.888-6.664-22.024-6.664    c-22.056,0-40,17.944-40,40c0,22.056,17.944,40,40,40c22.056,0,40-17.944,40-40c0-8.136-2.472-15.696-6.664-22.024l39.904-39.904    c14.168,16.736,22.76,38.336,22.76,61.928c0,52.936-43.064,96-96,96c-52.936,0-96-43.064-96-96c0-52.936,43.064-96,96-96    c23.592,0,45.192,8.592,61.928,22.76L262.026,214.669z M313.234,163.461c-19.656-17.056-45.224-27.456-73.232-27.456    c-61.76,0-112,50.24-112,112s50.24,112,112,112s112-50.24,112-112c0-28.008-10.4-53.576-27.456-73.232l11.304-11.304    c19.944,22.568,32.152,52.12,32.152,84.536c0,70.576-57.424,128-128,128s-128-57.424-128-128s57.424-128,128-128    c32.416,0,61.968,12.208,84.544,32.144L313.234,163.461z M240.002,104.005c-79.4,0-144,64.6-144,144s64.6,144,144,144    s144-64.6,144-144c0-36.824-14.016-70.36-36.84-95.848l34.056-34.056c31.504,34.208,50.784,79.84,50.784,129.904    c0,105.864-86.136,192-192,192s-192-86.136-192-192s86.136-192,192-192c50.064,0,95.696,19.28,129.912,50.776l-34.064,34.064    C310.362,118.021,276.826,104.005,240.002,104.005z M435.666,23.653l4.576,18.288c0.72,2.864,2.96,5.112,5.824,5.824l18.296,4.576    l-18.808,18.808l-22.952-5.736l-5.736-22.952L435.666,23.653z" fill="#f25c5c" data-original="#000000" style="" class=""/>
	</g>
</g>
<g xmlns="http://www.w3.org/2000/svg">
	<g>
		<rect x="64.002" y="240.005" width="16" height="16" fill="#f25c5c" data-original="#000000" style="" class=""/>
	</g>
</g>
<g xmlns="http://www.w3.org/2000/svg">
	<g>
		<rect x="400.002" y="240.005" width="16" height="16" fill="#f25c5c" data-original="#000000" style="" class=""/>
	</g>
</g>
<g xmlns="http://www.w3.org/2000/svg">
	<g>
		<rect x="232.002" y="72.005" width="16" height="16" fill="#f25c5c" data-original="#000000" style="" class=""/>
	</g>
</g>
<g xmlns="http://www.w3.org/2000/svg">
	<g>
		<rect x="232.002" y="408.005" width="16" height="16" fill="#f25c5c" data-original="#000000" style="" class=""/>
	</g>
</g>
<g xmlns="http://www.w3.org/2000/svg">
</g>
<g xmlns="http://www.w3.org/2000/svg">
</g>
<g xmlns="http://www.w3.org/2000/svg">
</g>
<g xmlns="http://www.w3.org/2000/svg">
</g>
<g xmlns="http://www.w3.org/2000/svg">
</g>
<g xmlns="http://www.w3.org/2000/svg">
</g>
<g xmlns="http://www.w3.org/2000/svg">
</g>
<g xmlns="http://www.w3.org/2000/svg">
</g>
<g xmlns="http://www.w3.org/2000/svg">
</g>
<g xmlns="http://www.w3.org/2000/svg">
</g>
<g xmlns="http://www.w3.org/2000/svg">
</g>
<g xmlns="http://www.w3.org/2000/svg">
</g>
<g xmlns="http://www.w3.org/2000/svg">
</g>
<g xmlns="http://www.w3.org/2000/svg">
</g>
<g xmlns="http://www.w3.org/2000/svg">
</g>
</g></svg>
