<?xml version="1.0"?>
<svg xmlns="http://www.w3.org/2000/svg" xmlns:xlink="http://www.w3.org/1999/xlink" xmlns:svgjs="http://svgjs.com/svgjs" version="1.1" width="512" height="512" x="0" y="0" viewBox="0 0 480 480" style="enable-background:new 0 0 512 512" xml:space="preserve" class=""><g>
<g xmlns="http://www.w3.org/2000/svg">
	<g>
		<path d="M472,0H8C3.584,0,0,3.584,0,8v32v216v8v80c0,4.416,3.584,8,8,8h24v120c0,4.416,3.584,8,8,8h40h40c4.416,0,8-3.584,8-8V352    h224v120c0,4.416,3.584,8,8,8h40h40c4.416,0,8-3.584,8-8V352h24c4.416,0,8-3.584,8-8v-80v-8V40V8C480,3.584,476.416,0,472,0z     M112,256v8v16v184H88V344H72v120H48V256H32v80H16v-72v-8c0-13.232,10.768-24,24-24h80c13.232,0,24,10.768,24,24v24    c0,4.416,3.584,8,8,8h40v16h-40c-13.232,0-24-10.768-24-24v-16v-8H112z M48,184c0-17.648,14.352-32,32-32s32,14.352,32,32    s-14.352,32-32,32S48,201.648,48,184z M464,264v72h-16v-80h-16v208h-24V344h-16v120h-24V256c0-4.416-3.584-8-8-8h-48    c-13.232,0-24-10.768-24-24v-48h16v48c0,4.416,3.584,8,8,8h128c13.232,0,24,10.768,24,24V264z M368,184c0-17.648,14.352-32,32-32    s32,14.352,32,32s-14.352,32-32,32S368,201.648,368,184z M464,224.208c-6.704-5.08-14.96-8.208-24-8.208h-4.32    c7.632-8.504,12.32-19.696,12.32-32c0-26.472-21.528-48-48-48s-48,21.528-48,48c0,12.304,4.688,23.496,12.32,32H320v-48    c0-4.416-3.584-8-8-8h-32c-4.416,0-8,3.584-8,8v56c0,22.056,17.944,40,40,40h40v72H128v-24.208c6.704,5.08,14.96,8.208,24,8.208    h48c4.416,0,8-3.584,8-8v-32c0-4.416-3.584-8-8-8h-40v-16c0-22.056-17.944-40-40-40h-4.32c7.632-8.504,12.32-19.696,12.32-32    c0-26.472-21.528-48-48-48s-48,21.528-48,48c0,12.304,4.688,23.496,12.32,32H40c-9.04,0-17.296,3.128-24,8.208V48h448V224.208z     M464,32H16V16h448V32z" fill="#f25c5c" data-original="#000000" style="" class=""/>
	</g>
</g>
<g xmlns="http://www.w3.org/2000/svg">
	<g>
		<path d="M400,64c-13.232,0-24,10.768-24,24c0,0.32,0.08,0.624,0.096,0.944l-38.168,15.264C333.528,99.216,327.16,96,320,96    c-7.928,0-14.92,3.912-19.288,9.856L263.88,94.808C263.248,82.136,252.824,72,240,72c-13.232,0-24,10.768-24,24    c0,2.216,0.4,4.32,0.968,6.36l-43.064,30.144C169.968,129.696,165.192,128,160,128c-4.64,0-8.936,1.384-12.608,3.672    l-44.808-35.848C103.44,93.36,104,90.752,104,88c0-13.232-10.768-24-24-24S56,74.768,56,88s10.768,24,24,24    c4.64,0,8.936-1.384,12.608-3.672l44.808,35.848C136.56,146.64,136,149.248,136,152c0,13.232,10.768,24,24,24s24-10.768,24-24    c0-2.216-0.4-4.32-0.968-6.36l43.064-30.144C230.032,118.304,234.808,120,240,120c7.928,0,14.92-3.912,19.288-9.856l36.832,11.048    C296.752,133.864,307.176,144,320,144c13.232,0,24-10.768,24-24c0-0.32-0.08-0.624-0.096-0.944l38.168-15.264    C386.472,108.784,392.84,112,400,112c13.232,0,24-10.768,24-24S413.232,64,400,64z M80,96c-4.408,0-8-3.592-8-8s3.592-8,8-8    s8,3.592,8,8S84.408,96,80,96z M160,160c-4.408,0-8-3.592-8-8s3.592-8,8-8s8,3.592,8,8S164.408,160,160,160z M240,104    c-4.408,0-8-3.592-8-8s3.592-8,8-8s8,3.592,8,8S244.408,104,240,104z M320,128c-4.408,0-8-3.592-8-8s3.592-8,8-8    c4.408,0,8,3.592,8,8S324.408,128,320,128z M400,96c-4.408,0-8-3.592-8-8s3.592-8,8-8c4.408,0,8,3.592,8,8S404.408,96,400,96z" fill="#f25c5c" data-original="#000000" style="" class=""/>
	</g>
</g>
<g xmlns="http://www.w3.org/2000/svg">
	<g>
		<rect x="200" y="176" width="56" height="16" fill="#f25c5c" data-original="#000000" style="" class=""/>
	</g>
</g>
<g xmlns="http://www.w3.org/2000/svg">
	<g>
		<rect x="184" y="208" width="72" height="16" fill="#f25c5c" data-original="#000000" style="" class=""/>
	</g>
</g>
<g xmlns="http://www.w3.org/2000/svg">
	<g>
		<rect x="184" y="240" width="72" height="16" fill="#f25c5c" data-original="#000000" style="" class=""/>
	</g>
</g>
<g xmlns="http://www.w3.org/2000/svg">
	<g>
		<rect x="320" y="304" width="16" height="16" fill="#f25c5c" data-original="#000000" style="" class=""/>
	</g>
</g>
<g xmlns="http://www.w3.org/2000/svg">
	<g>
		<rect x="288" y="304" width="16" height="16" fill="#f25c5c" data-original="#000000" style="" class=""/>
	</g>
</g>
<g xmlns="http://www.w3.org/2000/svg">
	<g>
		<rect x="256" y="304" width="16" height="16" fill="#f25c5c" data-original="#000000" style="" class=""/>
	</g>
</g>
<g xmlns="http://www.w3.org/2000/svg">
</g>
<g xmlns="http://www.w3.org/2000/svg">
</g>
<g xmlns="http://www.w3.org/2000/svg">
</g>
<g xmlns="http://www.w3.org/2000/svg">
</g>
<g xmlns="http://www.w3.org/2000/svg">
</g>
<g xmlns="http://www.w3.org/2000/svg">
</g>
<g xmlns="http://www.w3.org/2000/svg">
</g>
<g xmlns="http://www.w3.org/2000/svg">
</g>
<g xmlns="http://www.w3.org/2000/svg">
</g>
<g xmlns="http://www.w3.org/2000/svg">
</g>
<g xmlns="http://www.w3.org/2000/svg">
</g>
<g xmlns="http://www.w3.org/2000/svg">
</g>
<g xmlns="http://www.w3.org/2000/svg">
</g>
<g xmlns="http://www.w3.org/2000/svg">
</g>
<g xmlns="http://www.w3.org/2000/svg">
</g>
</g></svg>
