<?xml version="1.0"?>
<svg xmlns="http://www.w3.org/2000/svg" xmlns:xlink="http://www.w3.org/1999/xlink" xmlns:svgjs="http://svgjs.com/svgjs" version="1.1" width="512" height="512" x="0" y="0" viewBox="0 0 512 512" style="enable-background:new 0 0 512 512" xml:space="preserve" class=""><g><g xmlns="http://www.w3.org/2000/svg"><g><g><g><g><g><g><g><g><path d="m135 512h-120c-8.284 0-15-6.716-15-15v-10c0-41.355 33.645-75 75-75s75 33.645 75 75v10c0 8.284-6.716 15-15 15z" fill="#5f5da6" data-original="#ffb454" style="" class=""/></g><g><path d="m75 412v100h60c8.284 0 15-6.716 15-15v-10c0-41.355-33.645-75-75-75z" fill="#5f5da6" data-original="#ff9100" style="" class=""/></g></g><path d="m35 362v30c0 22.091 17.909 40 40 40 22.091 0 40-17.909 40-40v-30c0-22.091-17.909-40-40-40-22.091 0-40 17.909-40 40z" fill="#ffddce" data-original="#ffddce" style="" class=""/><g><path d="m75 322v110c22.091 0 40-17.909 40-40v-30c0-22.091-17.909-40-40-40z" fill="#ffcbbc" data-original="#ffcbbc" style="" class=""/></g></g><g><g><g><path d="m316 512h-120c-8.284 0-15-6.716-15-15v-10c0-41.355 33.645-75 75-75s75 33.645 75 75v10c0 8.284-6.716 15-15 15z" fill="#d97777" data-original="#ff80aa" style="" class=""/></g><path d="m331 497v-10c0-41.355-33.645-75-75-75v100h60c8.284 0 15-6.716 15-15z" fill="#d97777" data-original="#ff5e90" style="" class=""/></g><path d="m216 362v30c0 22.091 17.909 40 40 40 22.091 0 40-17.909 40-40v-30c0-22.091-17.909-40-40-40-22.091 0-40 17.909-40 40z" fill="#ffddce" data-original="#ffddce" style="" class=""/><path d="m256 322v110c22.091 0 40-17.909 40-40v-30c0-22.091-17.909-40-40-40z" fill="#ffcbbc" data-original="#ffcbbc" style="" class=""/></g><g><g><g><path d="m497 512h-120c-8.284 0-15-6.716-15-15v-10c0-41.355 33.645-75 75-75s75 33.645 75 75v10c0 8.284-6.716 15-15 15z" fill="#f2b279" data-original="#9ee2f8" style="" class=""/></g><g><path d="m437 412v100h60c8.284 0 15-6.716 15-15v-10c0-41.355-33.645-75-75-75z" fill="#f2b279" data-original="#8bb9ff" style="" class=""/></g></g><path d="m397 362v30c0 22.091 17.909 40 40 40 22.091 0 40-17.909 40-40v-30c0-22.091-17.909-40-40-40-22.091 0-40 17.909-40 40z" fill="#ffddce" data-original="#ffddce" style="" class=""/><g><path d="m437 322v110c22.091 0 40-17.909 40-40v-30c0-22.091-17.909-40-40-40z" fill="#ffcbbc" data-original="#ffcbbc" style="" class=""/></g></g></g></g></g></g></g><path d="m256 50c-8.284 0-15-6.716-15-15v-20c0-8.284 6.716-15 15-15 8.284 0 15 6.716 15 15v20c0 8.284-6.716 15-15 15z" fill="#fff5f5" data-original="#fff5f5" style="" class=""/><path d="m256 50c8.284 0 15-6.716 15-15v-20c0-8.284-6.716-15-15-15z" fill="#e2dff4" data-original="#e2dff4" style="" class=""/><g><path d="m338.272 97.5c-4.142-7.174-1.684-16.348 5.491-20.49l17.321-10c7.174-4.142 16.348-1.684 20.49 5.491 4.142 7.174 1.684 16.348-5.491 20.49l-17.321 10c-7.174 4.141-16.348 1.683-20.49-5.491z" fill="#e2dff4" data-original="#e2dff4" style="" class=""/></g><g><path d="m303.5 62.728c-7.174-4.142-9.633-13.316-5.491-20.49l10-17.321c4.142-7.174 13.316-9.633 20.49-5.491 7.174 4.142 9.633 13.316 5.491 20.49l-10 17.321c-4.142 7.175-13.315 9.633-20.49 5.491z" fill="#e2dff4" data-original="#e2dff4" style="" class=""/></g><g><path d="m188.01 57.237-10-17.321c-4.142-7.174-1.684-16.348 5.491-20.49 7.174-4.142 16.348-1.684 20.49 5.491l10 17.321c4.142 7.174 1.684 16.348-5.491 20.49-7.175 4.142-16.348 1.684-20.49-5.491z" fill="#fff5f5" data-original="#fff5f5" style="" class=""/></g><g><path d="m153.238 102.99-17.321-10c-7.174-4.142-9.633-13.316-5.491-20.49 4.142-7.174 13.316-9.633 20.49-5.491l17.321 10c7.174 4.142 9.633 13.316 5.491 20.49-4.142 7.175-13.316 9.633-20.49 5.491z" fill="#fff5f5" data-original="#fff5f5" style="" class=""/></g><path d="m206 265c0 19.299 15.701 35 35 35h30c19.299 0 35-15.701 35-35v-25l-50-16-50 16z" fill="#0a789b" data-original="#0a789b" style="" class=""/><path d="m271 300c19.299 0 35-15.701 35-35v-25l-50-16v76z" fill="#0a617d" data-original="#0a617d" style="" class=""/><path d="m331 144.968c0-41.328-33.644-74.958-75.003-74.968-41.353.009-74.997 33.64-74.997 74.968 0 14.61 4.22 28.776 12.204 40.965 8.491 12.966 12.796 26.11 12.796 39.067v15h100v-15c0-12.957 4.305-26.101 12.795-39.066 7.985-12.19 12.205-26.356 12.205-40.966z" fill="#fff16b" data-original="#fff16b" style="" class=""/><path d="m256 70v170h50v-15c0-12.957 4.305-26.101 12.795-39.066 7.985-12.19 12.205-26.356 12.205-40.966 0-41.327-33.642-74.957-75-74.968z" fill="#ffc178" data-original="#ffc178" style="" class=""/></g></g></svg>
