<?xml version="1.0"?>
<svg xmlns="http://www.w3.org/2000/svg" xmlns:xlink="http://www.w3.org/1999/xlink" xmlns:svgjs="http://svgjs.com/svgjs" version="1.1" width="512" height="512" x="0" y="0" viewBox="0 0 512 512" style="enable-background:new 0 0 512 512" xml:space="preserve" class=""><g><linearGradient xmlns="http://www.w3.org/2000/svg" id="a" gradientUnits="userSpaceOnUse" x1="256" x2="256" y1="0" y2="512"><stop stop-opacity="1" stop-color="#f22929" offset="0"/><stop stop-opacity="1" stop-color="#f25c5c" offset="1"/></linearGradient><path xmlns="http://www.w3.org/2000/svg" d="m512 41v331c0 33.085938-26.914062 60-60 60h-54v40h58v40h-155v-40h57v-40h-57c-33.085938 0-60-26.914062-60-60v-153h40v153c0 11.027344 8.972656 20 20 20h151c11.027344 0 20-8.972656 20-20v-291h-191v18h-40v-58h117v-41h40v41zm-471 19c0-33.085938 26.914062-60 60-60s60 26.914062 60 60-26.914062 60-60 60-60-26.914062-60-60zm40 0c0 11.027344 8.972656 20 20 20s20-8.972656 20-20-8.972656-20-20-20-20 8.972656-20 20zm39 452h40v-293h-40zm-80-313c0-11.027344 8.972656-20 20-20h221v-40h-221c-33.085938 0-60 26.914062-60 60v168h40v145h40v-185h-40zm0 0" fill="url(#a)" data-original="url(#a)" style="" class=""/></g></svg>
