<?xml version="1.0"?>
<svg xmlns="http://www.w3.org/2000/svg" xmlns:xlink="http://www.w3.org/1999/xlink" xmlns:svgjs="http://svgjs.com/svgjs" version="1.1" width="512" height="512" x="0" y="0" viewBox="0 0 512 512" style="enable-background:new 0 0 512 512" xml:space="preserve" class=""><g><g xmlns="http://www.w3.org/2000/svg"><path d="m120.003 407c-49.626 0-90 40.374-90 90 0 8.284 6.716 15 15 15h150c8.284 0 15-6.716 15-15 0-49.626-40.374-90-90-90z" fill="#5f5da6" data-original="#9cd6f4" style="" class=""/><path d="m120.003 407v105h75c8.284 0 15-6.716 15-15 0-49.626-40.374-90-90-90z" fill="#5f5da6" data-original="#6693fb" style="" class=""/><circle cx="120.003" cy="377" fill="#ffd9b3" r="60" data-original="#ffd9b3" style="" class=""/><path d="m120.003 317v120c33.084 0 60-26.916 60-60s-26.916-60-60-60z" fill="#ffbb99" data-original="#ffbb99" style="" class=""/><path d="m391.995 407c-49.626 0-90 40.374-90 90 0 8.284 6.716 15 15 15h150c8.284 0 15-6.716 15-15 0-49.626-40.374-90-90-90z" fill="#d97777" data-original="#dc435b" style="" class=""/><path d="m391.995 407v105h75c8.284 0 15-6.716 15-15 0-49.626-40.374-90-90-90z" fill="#d97777" data-original="#c30057" style="" class=""/><circle cx="391.995" cy="377" fill="#ffd9b3" r="60" data-original="#ffd9b3" style="" class=""/><path d="m391.995 317v120c33.084 0 60-26.916 60-60s-26.916-60-60-60z" fill="#ffbb99" data-original="#ffbb99" style="" class=""/><path d="m296.981 166.831h-66.962v-93.833c0-8.284-6.716-15-15-15h-200.019c-8.284 0-15 6.716-15 15v168.996c0 8.284 6.716 15 15 15h68.788l25.607 25.608c2.813 2.813 6.628 4.394 10.606 4.394s7.794-1.581 10.606-4.394l25.607-25.608h140.765c8.284 0 15-6.716 15-15v-60.164c.002-8.284-6.714-14.999-14.998-14.999z" fill="#fff5f5" data-original="#fff5f5" style="" class=""/><path d="m296.981 166.831h-66.962v-93.833c0-8.284-6.716-15-15-15h-95.016v228.998c3.979 0 7.793-1.581 10.605-4.394l25.607-25.608h140.765c8.284 0 15-6.716 15-15v-60.164c.001-8.284-6.715-14.999-14.999-14.999z" fill="#e4e4ff" data-original="#e4e4ff" style="" class=""/><circle cx="95.979" cy="182.101" fill="#4d4d8c" r="15" data-original="#4d4d8c" style="" class=""/><circle cx="155.989" cy="182.101" fill="#283366" r="15" data-original="#283366" style="" class=""/><path d="m496.999 0h-281.98c-8.284 0-15 6.716-15 15v166.831c0 8.284 6.716 15 15 15h140.764l25.607 25.608c2.813 2.813 6.628 4.393 10.606 4.393 3.979 0 7.794-1.581 10.606-4.393l25.607-25.608h68.789c8.284 0 15-6.716 15-15v-166.831c.001-8.284-6.715-15-14.999-15z" fill="#fff5f5" data-original="#fff5f5" style="" class=""/><path d="m496.999 0h-105.004v226.832h.001c3.979 0 7.794-1.581 10.606-4.393l25.607-25.608h68.789c8.284 0 15-6.716 15-15v-166.831c.001-8.284-6.715-15-14.999-15z" fill="#e4e4ff" data-original="#e4e4ff" style="" class=""/><circle cx="295.999" cy="121.83" fill="#4d4d8c" r="15" data-original="#4d4d8c" style="" class=""/><circle cx="356.009" cy="121.83" fill="#4d4d8c" r="15" data-original="#4d4d8c" style="" class=""/><circle cx="416.019" cy="121.83" fill="#283366" r="15" data-original="#283366" style="" class=""/></g></g></svg>
