<?xml version="1.0"?>
<svg xmlns="http://www.w3.org/2000/svg" xmlns:xlink="http://www.w3.org/1999/xlink" xmlns:svgjs="http://svgjs.com/svgjs" version="1.1" width="512" height="512" x="0" y="0" viewBox="0 0 512.305 512.305" style="enable-background:new 0 0 512 512" xml:space="preserve" class=""><g><g xmlns="http://www.w3.org/2000/svg"><path d="m389.698 232.477-11.929-39.764v-79.798c0-24.813-20.187-45-45-45h-149c-24.813 0-45 20.187-45 45v92c0 24.813 20.187 45 45 45h134.698l26.596 16.623c4.934 3.083 10.439 4.61 15.924 4.61 6.402 0 12.777-2.082 18.176-6.201 10.023-7.649 14.158-20.394 10.535-32.47z" fill="#dad0cb" data-original="#dad0cb" style="" class=""/><path d="m274 .152h-149c-24.813 0-45 20.187-45 45v80.798l-11.929 39.763c-3.623 12.076.512 24.821 10.534 32.47 5.398 4.12 11.772 6.202 18.176 6.202 5.485 0 10.991-1.527 15.924-4.61h.001l26.596-16.623h134.698c24.813 0 45-20.187 45-45v-93c0-24.813-20.187-45-45-45z" fill="#f5f0eb" data-original="#f5f0eb" style="" class=""/><path d="m455.11 370.152h-29.11c-25.916 0-47 21.245-47 47.359v64.641c0 16.542 13.458 30 30 30h63.11c16.542 0 30-13.458 30-30v-64.641c0-26.114-21.084-47.359-47-47.359z" fill="#d97777" data-original="#ff712f" style="" class=""/><path d="m455.11 370.152h-13.458v142h30.458c16.542 0 30-13.458 30-30v-64.641c0-26.114-21.084-47.359-47-47.359z" fill="#d97777" data-original="#ff4c04" style="" class=""/><ellipse cx="441.652" cy="329" fill="#fed2a4" rx="70.652" ry="70.152" data-original="#fed2a4" style="" class=""/><path d="m512.305 329c0-38.682-31.694-70.152-70.652-70.152v140.304c38.957 0 70.652-31.47 70.652-70.152z" fill="#ffbd86" data-original="#ffbd86" style="" class=""/><path d="m296 482.152h-25v-50c0-8.284-6.716-15-15-15s-15 6.716-15 15v50h-25c-8.284 0-15 6.716-15 15s6.716 15 15 15h80c8.284 0 15-6.716 15-15s-6.716-15-15-15z" fill="#5f5da6" data-original="#ffda2d" style="" class=""/><path d="m296 512.152c8.284 0 15-6.716 15-15s-6.716-15-15-15h-25v-50c0-8.284-6.716-15-15-15v95z" fill="#5f5da6" data-original="#fdbf00" style="" class=""/><path d="m273 329.152h-34c-16.542 0-30 13.458-30 30v58c0 16.542 13.458 30 30 30h34c16.542 0 30-13.458 30-30v-58c0-16.542-13.458-30-30-30z" fill="#6c6c6c" data-original="#6c6c6c" style="" class=""/><path d="m273 329.152h-17v118h17c16.542 0 30-13.458 30-30v-58c0-16.542-13.458-30-30-30z" fill="#404040" data-original="#404040" style="" class=""/><path d="m84.11 370.152h-29.11c-25.916 0-47 21.245-47 47.359v79.641c0 8.284 6.716 15 15 15h93.11c8.284 0 15-6.716 15-15v-79.641c0-26.114-21.084-47.359-47-47.359z" fill="#5f5da6" data-original="#b9dd39" style="" class=""/><path d="m84.11 370.152h-13.458v142h45.458c8.284 0 15-6.716 15-15v-79.641c0-26.114-21.084-47.359-47-47.359z" fill="#5f5da6" data-original="#90cc1c" style="" class=""/><ellipse cx="70.652" cy="329" fill="#fed2a4" rx="70.652" ry="70.152" data-original="#fed2a4" style="" class=""/><path d="m141.305 329c0-38.682-31.694-70.152-70.652-70.152v140.304c38.957 0 70.652-31.47 70.652-70.152z" fill="#ffbd86" data-original="#ffbd86" style="" class=""/></g></g></svg>
