<?xml version="1.0"?>
<svg xmlns="http://www.w3.org/2000/svg" xmlns:xlink="http://www.w3.org/1999/xlink" xmlns:svgjs="http://svgjs.com/svgjs" version="1.1" width="512" height="512" x="0" y="0" viewBox="0 0 512 512" style="enable-background:new 0 0 512 512" xml:space="preserve" class=""><g><linearGradient xmlns="http://www.w3.org/2000/svg" id="a" gradientUnits="userSpaceOnUse" x1="256" x2="256" y1="0" y2="512"><stop stop-opacity="1" stop-color="#f22929" offset="0"/><stop stop-opacity="1" stop-color="#f25c5c" offset="1"/></linearGradient><path xmlns="http://www.w3.org/2000/svg" d="m426.050781 244.53125 31.5-124.796875c30.488281-2.8125 54.449219-28.523437 54.449219-59.734375 0-33.085938-26.914062-60-60-60s-60 26.914062-60 60c0 20.800781 10.644531 39.160156 26.769531 49.929688l-31.496093 124.796874c-4.695313-.480468-9.457032-.726562-14.273438-.726562-31.125 0-59.890625 10.28125-83.085938 27.628906l-39.542968-39.542968c17.347656-23.195313 27.628906-51.960938 27.628906-83.085938 0-76.644531-62.355469-139-139-139s-139 62.355469-139 139c0 57.828125 35.5 107.511719 85.847656 128.429688l-32.347656 124.929687c-30.035156 3.25-53.5 28.753906-53.5 59.640625 0 33.085938 26.914062 60 60 60s60-26.914062 60-60c0-21.140625-11-39.746094-27.5625-50.4375l32.183594-124.304688c4.726562.488282 9.523437.742188 14.378906.742188 31.125 0 59.890625-10.285156 83.085938-27.632812l39.542968 39.546874c-17.347656 23.195313-27.628906 51.960938-27.628906 83.085938 0 76.644531 62.355469 139 139 139s139-62.355469 139-139c0-57.867188-35.546875-107.578125-85.949219-128.46875zm25.949219-204.53125c11.027344 0 20 8.972656 20 20s-8.972656 20-20 20-20-8.972656-20-20 8.972656-20 20-20zm-392 432c-11.027344 0-20-8.972656-20-20s8.972656-20 20-20 20 8.972656 20 20-8.972656 20-20 20zm-20-333c0-54.589844 44.410156-99 99-99s99 44.410156 99 99c0 23.019531-7.898438 44.226562-21.125 61.058594-6.867188-13.007813-16.894531-24.097656-29.058594-32.238282 7.03125-9.828124 11.183594-21.84375 11.183594-34.820312 0-33.085938-26.914062-60-60-60s-60 26.914062-60 60c0 12.976562 4.152344 24.992188 11.183594 34.820312-12.164063 8.140626-22.195313 19.230469-29.058594 32.238282-13.226562-16.832032-21.125-38.039063-21.125-61.058594zm79-6c0-11.027344 8.972656-20 20-20s20 8.972656 20 20-8.972656 20-20 20-20-8.972656-20-20zm-25.835938 93.730469c6.09375-19.519531 24.335938-33.730469 45.835938-33.730469s39.742188 14.210938 45.835938 33.730469c-13.714844 7.191406-29.308594 11.269531-45.835938 11.269531s-32.121094-4.078125-45.835938-11.269531zm234 234c6.09375-19.519531 24.335938-33.730469 45.835938-33.730469s39.742188 14.210938 45.835938 33.730469c-13.714844 7.191406-29.308594 11.269531-45.835938 11.269531s-32.121094-4.078125-45.835938-11.269531zm25.835938-93.730469c0-11.027344 8.972656-20 20-20s20 8.972656 20 20-8.972656 20-20 20-20-8.972656-20-20zm97.875 67.058594c-6.867188-13.007813-16.894531-24.097656-29.058594-32.238282 7.03125-9.828124 11.183594-21.84375 11.183594-34.820312 0-33.085938-26.914062-60-60-60s-60 26.914062-60 60c0 12.976562 4.152344 24.992188 11.183594 34.820312-12.164063 8.140626-22.195313 19.230469-29.058594 32.238282-13.226562-16.832032-21.125-38.039063-21.125-61.058594 0-54.589844 44.410156-99 99-99s99 44.410156 99 99c0 23.019531-7.898438 44.226562-21.125 61.058594zm0 0" fill="url(#a)" data-original="url(#a)" style=""/></g></svg>
