<?xml version="1.0"?>
<svg xmlns="http://www.w3.org/2000/svg" xmlns:xlink="http://www.w3.org/1999/xlink" xmlns:svgjs="http://svgjs.com/svgjs" version="1.1" width="512" height="512" x="0" y="0" viewBox="0 0 512 512" style="enable-background:new 0 0 512 512" xml:space="preserve" class=""><g><linearGradient xmlns="http://www.w3.org/2000/svg" id="a" gradientUnits="userSpaceOnUse" x1="256" x2="256" y1="0" y2="512"><stop stop-opacity="1" stop-color="#f22929" offset="0"/><stop stop-opacity="1" stop-color="#f25c5c" offset="1"/></linearGradient><path xmlns="http://www.w3.org/2000/svg" d="m512 236h-40.921875c-4.574219-50.144531-26.296875-96.691406-62.34375-132.734375-36.042969-36.046875-82.589844-57.769531-132.734375-62.34375v-40.921875h-40v40.921875c-50.144531 4.574219-96.691406 26.296875-132.734375 62.34375-36.046875 36.042969-57.769531 82.589844-62.34375 132.734375h-40.921875v40h40.921875c4.574219 50.144531 26.296875 96.691406 62.34375 132.734375 36.042969 36.046875 82.589844 57.769531 132.734375 62.34375v40.921875h40v-40.921875c50.144531-4.574219 96.6875-26.296875 132.734375-62.34375 36.042969-36.042969 57.769531-82.589844 62.34375-132.734375h40.921875zm-236 194.855469v-37.855469h-40v37.855469c-81.097656-9.214844-145.640625-73.757813-154.855469-154.855469h38.855469v-40h-38.855469c9.214844-81.097656 73.757813-145.640625 154.855469-154.855469v38.855469h40v-38.855469c81.097656 9.214844 145.640625 73.757813 154.855469 154.855469h-38.855469v40h38.855469c-9.214844 81.097656-73.757813 145.640625-154.855469 154.855469zm28.816406-167.035157c7.03125-9.828124 11.183594-21.84375 11.183594-34.820312 0-33.085938-26.914062-60-60-60s-60 26.914062-60 60c0 12.976562 4.152344 24.992188 11.183594 34.820312-23.609375 15.796876-39.183594 42.703126-39.183594 73.179688h40c0-26.46875 21.53125-48 48-48s48 21.53125 48 48h40c0-30.476562-15.574219-57.382812-39.183594-73.179688zm-68.816406-34.820312c0-11.027344 8.972656-20 20-20s20 8.972656 20 20-8.972656 20-20 20-20-8.972656-20-20zm0 0" fill="url(#a)" data-original="url(#a)" style="" class=""/></g></svg>
